<svg width="20" height="20" viewBox="0 0 20 20" fill="none" xmlns="http://www.w3.org/2000/svg">
<g clip-path="url(#clip0_3001_19786)">
<path d="M1.52179 1.51458L2.39679 0.75625C3.40512 -0.252083 5.03846 -0.252083 6.04679 0.75625C6.07179 0.78125 7.61346 2.78958 7.61346 2.78958C8.56346 3.78958 8.56346 5.36458 7.61346 6.35625L6.64679 7.57292C7.86346 10.3313 9.75513 12.2313 12.4218 13.3646L13.6385 12.3896C14.6301 11.4313 16.2135 11.4313 17.2051 12.3896C17.2051 12.3896 19.2135 13.9313 19.2385 13.9563C20.2468 14.9646 20.2468 16.5979 19.2801 17.5646L18.4468 18.5229C17.4885 19.4813 16.1968 20.0063 14.7968 20.0063C8.43013 20.0063 -0.00320816 11.5646 -0.00320816 5.20625C-0.00320816 3.81458 0.521791 2.51458 1.52179 1.52292V1.51458ZM14.7968 18.3313C15.7468 18.3313 16.6218 17.9813 17.2218 17.3729L18.0551 16.4146C18.3968 16.0729 18.4135 15.5146 18.0885 15.1563C18.0885 15.1563 16.0968 13.6229 16.0718 13.5979C15.7301 13.2563 15.1301 13.2563 14.7801 13.5979C14.7551 13.6229 13.0801 14.9646 13.0801 14.9646C12.8468 15.1479 12.5385 15.1979 12.2635 15.0896C8.81346 13.7729 6.33846 11.3063 4.91346 7.74792C4.80513 7.47292 4.84679 7.15625 5.03846 6.91458C5.03846 6.91458 6.38013 5.23125 6.39679 5.21458C6.75513 4.85625 6.75513 4.28125 6.39679 3.92292C6.37179 3.89792 4.83846 1.90625 4.83846 1.90625C4.48012 1.58125 3.92179 1.58958 3.53846 1.97292L2.66346 2.73125C2.02179 3.37292 1.66346 4.24792 1.66346 5.19792C1.66346 10.9979 9.80513 18.3313 14.7968 18.3313Z" fill="#D8BCBC"/>
</g>
<defs>
<clipPath id="clip0_3001_19786">
<rect width="20" height="20" fill="white"/>
</clipPath>
</defs>
</svg>
