<svg width="20" height="20" viewBox="0 0 20 20" fill="none" xmlns="http://www.w3.org/2000/svg">
<path d="M19.1667 9.16406H0.833333C0.373096 9.16406 0 9.53716 0 9.9974C0 10.4576 0.373096 10.8307 0.833333 10.8307H19.1667C19.6269 10.8307 20 10.4576 20 9.9974C20 9.53716 19.6269 9.16406 19.1667 9.16406Z" fill="#D8BCBC"/>
<path d="M19.1667 3.33594H0.833333C0.373096 3.33594 0 3.70903 0 4.16927C0 4.62951 0.373096 5.0026 0.833333 5.0026H19.1667C19.6269 5.0026 20 4.62951 20 4.16927C20 3.70903 19.6269 3.33594 19.1667 3.33594Z" fill="#D8BCBC"/>
<path d="M19.1667 15H0.833333C0.373096 15 0 15.3731 0 15.8333C0 16.2936 0.373096 16.6667 0.833333 16.6667H19.1667C19.6269 16.6667 20 16.2936 20 15.8333C20 15.3731 19.6269 15 19.1667 15Z" fill="#D8BCBC"/>
</svg>
